<?xml version="1.0" encoding="UTF-8" standalone="no"?>
<svg width="16px" height="16px" viewBox="0 0 16 16" version="1.1" xmlns="http://www.w3.org/2000/svg" xmlns:xlink="http://www.w3.org/1999/xlink">
    <!-- Generator: Sketch 39.1 (31720) - http://www.bohemiancoding.com/sketch -->
    <title>iconfont-cuowu</title>
    <desc>Created with Sketch.</desc>
    <defs></defs>
    <g id="Page-1" stroke="none" stroke-width="1" fill="none" fill-rule="evenodd">
        <g id="域名管理" transform="translate(-767.000000, -18.000000)" fill="#E93333">
            <g id="添加域名" transform="translate(118.000000, -279.000000)">
                <g id="Group-17" transform="translate(649.000000, 297.000000)">
                    <path d="M15.6,2.4 L10,8 L15.6,13.6 C15.8,13.8 16,14.2 16,14.6 C16,15.4 15.4,16 14.6,16 C14.2,16 13.8,15.8 13.6,15.6 L8,10 L2.4,15.6 C2.2,15.8 1.8,16 1.4,16 C0.6,16 0,15.4 0,14.6 C0,14.2 0.2,13.8 0.4,13.6 L6,8 L0.4,2.4 C0.2,2.2 0,1.8 0,1.4 C0,0.6 0.6,5.68434189e-14 1.4,5.68434189e-14 C1.8,5.68434189e-14 2.2,0.2 2.4,0.4 L8,6 L13.6,0.4 C13.8,0.2 14.2,5.68434189e-14 14.6,5.68434189e-14 C15.4,5.68434189e-14 16,0.6 16,1.4 C16,1.8 15.8,2.2 15.6,2.4" id="iconfont-cuowu"></path>
                </g>
            </g>
        </g>
    </g>
</svg>