<?xml version="1.0" encoding="UTF-8" standalone="no"?>
<svg width="20px" height="22px" viewBox="0 0 20 22" version="1.1" xmlns="http://www.w3.org/2000/svg" xmlns:xlink="http://www.w3.org/1999/xlink">
    <!-- Generator: Sketch 39.1 (31720) - http://www.bohemiancoding.com/sketch -->
    <title>Combined Shape</title>
    <desc>Created with Sketch.</desc>
    <defs></defs>
    <g id="Page-1" stroke="none" stroke-width="1" fill="none" fill-rule="evenodd">
        <g id="流量分析" transform="translate(-48.000000, -360.000000)" fill="#8b9199">
            <g id="侧边主导航">
                <g id="04" transform="translate(45.519884, 357.188925)">
                    <g id="icon" transform="translate(3.000000, 3.000000)">
                        <path d="M0,1.991155 C0,0.891470458 0.902648095,0 2.0056107,0 L17.2443893,0 C18.3520575,0 19.25,0.889673948 19.25,1.991155 L19.25,20.008845 C19.25,21.1085295 18.3473519,22 17.2443893,22 L2.0056107,22 C0.897942495,22 0,21.1103261 0,20.008845 L0,1.991155 Z M3.65271748,6.01585533 C3.65271748,5.46615219 4.10824602,5.02052974 4.65467955,5.02052974 L14.6446358,5.02052974 C15.1980042,5.02052974 15.6465979,5.47671858 15.6465979,6.01585533 L15.6465979,6.27949226 C15.6465979,6.8291954 15.1910693,7.27481785 14.6446358,7.27481785 L4.65467955,7.27481785 C4.10131118,7.27481785 3.65271748,6.81862901 3.65271748,6.27949226 L3.65271748,6.01585533 Z M3.65271748,10.5244315 C3.65271748,9.97472839 4.10824602,9.52910595 4.65467955,9.52910595 L14.6446358,9.52910595 C15.1980042,9.52910595 15.6465979,9.98529478 15.6465979,10.5244315 L15.6465979,10.7880685 C15.6465979,11.3377716 15.1910693,11.7833941 14.6446358,11.7833941 L4.65467955,11.7833941 C4.10131118,11.7833941 3.65271748,11.3272052 3.65271748,10.7880685 L3.65271748,10.5244315 Z M3.65271748,15.0330077 C3.65271748,14.4833046 4.10824602,14.0376822 4.65467955,14.0376822 L14.6446358,14.0376822 C15.1980042,14.0376822 15.6465979,14.493871 15.6465979,15.0330077 L15.6465979,15.2966447 C15.6465979,15.8463478 15.1910693,16.2919703 14.6446358,16.2919703 L4.65467955,16.2919703 C4.10131118,16.2919703 3.65271748,15.8357814 3.65271748,15.2966447 L3.65271748,15.0330077 Z" id="Combined-Shape"></path>
                    </g>
                </g>
            </g>
        </g>
    </g>
</svg>