<?xml version="1.0" encoding="UTF-8" standalone="no"?>
<svg width="22px" height="26px" viewBox="0 0 22 26" version="1.1" xmlns="http://www.w3.org/2000/svg" xmlns:xlink="http://www.w3.org/1999/xlink">
    <!-- Generator: Sketch 39.1 (31720) - http://www.bohemiancoding.com/sketch -->
    <title>编辑 (2)</title>
    <desc>Created with Sketch.</desc>
    <defs>
        <path d="M14.2164207,3.13923918 C14.0798869,2.94541606 13.8957482,2.78381579 13.6642183,2.65455499 C13.4326107,2.52539144 13.138716,2.46073188 12.7823592,2.46073188 L11.9630594,2.46073188 C11.6779155,2.46073188 11.4107598,2.4542562 11.161378,2.44130484 L11.161378,1.23951211 C11.161378,0.903496298 11.081278,0.615980029 10.9209806,0.376963299 C10.7606054,0.137868767 10.4726224,0.018311791 10.0569538,0.018311791 L4.48133561,0.018311772 C4.1724671,0.018311772 3.91128136,0.137868767 3.69748672,0.37696328 C3.48369207,0.61598001 3.37683363,0.903496298 3.37683363,1.23951209 L3.37683363,2.4220139 L1.79149789,2.4220139 C1.48266827,2.4220139 1.21555136,2.48013944 0.989855473,2.59644888 C0.764237352,2.71277775 0.580215281,2.85812077 0.437653099,3.03261408 C0.295090917,3.20702959 0.188271377,3.39766349 0.116980575,3.6044185 C0.0457286544,3.81117353 0.0101610352,3.99863763 0.0101610352,4.16651914 C0.0101610352,4.50253494 0.0160922055,4.70285318 0.0279934655,4.76741551 C0.0279934655,4.81918205 0.0340024364,4.85140487 0.0457286544,4.86443403 L1.1501334,4.86443403 L1.1501334,14.8473257 C1.1501334,15.1833415 1.20658655,15.4837897 1.31937616,15.7487675 C1.43220467,16.0136675 1.58666809,16.2398301 1.78263031,16.4271775 C1.97861198,16.6145639 2.21309768,16.7598874 2.48620411,16.8633622 C2.75936887,16.9666619 3.0502105,17.0183118 3.35898176,17.0183118 L11.303843,17.0183118 C11.6363778,17.0183118 11.9303698,16.963531 12.1856438,16.8536584 C12.4409956,16.7437468 12.6577266,16.5983066 12.8358759,16.4174932 C13.0139862,16.236602 13.1505783,16.02658 13.2455161,15.7875049 C13.3406094,15.5484881 13.3880783,15.2995926 13.3880783,15.0411877 L13.3880783,4.86445347 L14.5637349,4.86445347 L14.5637349,4.74814406 C14.5637349,4.7094261 14.5666908,4.6641547 14.572622,4.6124076 C14.5786309,4.56067996 14.5815674,4.48964194 14.5815674,4.39929357 C14.5815674,4.20533433 14.5548868,3.99542898 14.5013895,3.76926637 C14.44797,3.54306486 14.3529739,3.33298449 14.2164207,3.13923918 L14.2164207,3.13923918 L14.2164207,3.13923918 Z M4.48133561,1.23960935 L10.0569733,1.23960935 L10.0569733,2.46082912 L4.48133561,2.46082912 L4.48133561,1.23960935 L4.48133561,1.23960935 L4.48133561,1.23960935 Z M4.49907079,13.9363746 C4.49907079,14.4661163 4.30902031,14.7310163 3.92909433,14.7310163 C3.72712315,14.7310163 3.5876335,14.6665317 3.51048931,14.5372515 C3.43324788,14.4080102 3.39474385,14.2077114 3.39474385,13.9363746 L3.39474385,4.94204495 L4.49907079,4.94204495 L4.49907079,13.9363746 L4.49907079,13.9363746 L4.49907079,13.9363746 Z M7.81244059,13.9363746 C7.81244059,14.2077114 7.77681463,14.404782 7.7055627,14.5275671 C7.63433022,14.650255 7.49767979,14.7116865 7.29590307,14.7116865 C6.90399807,14.7116865 6.7080553,14.4532816 6.7080553,13.9363746 L6.7080553,4.94204495 L7.81246005,4.94204495 L7.81246005,13.9363746 L7.81244059,13.9363746 L7.81244059,13.9363746 Z M11.1791132,13.8974816 C11.1791132,14.1689156 11.143565,14.3659863 11.0723131,14.4886742 C11.0011001,14.6115371 10.8586351,14.6730074 10.6448599,14.6730074 C10.2529355,14.6730074 10.0569927,14.4143692 10.0569927,13.8974816 L10.0569927,4.94204495 L11.1791326,4.94204495 L11.1791326,13.8974816 L11.1791132,13.8974816 L11.1791132,13.8974816 Z" id="path-1"></path>
        <filter x="-50%" y="-50%" width="200%" height="200%" filterUnits="objectBoundingBox" id="filter-2">
            <feOffset dx="0" dy="3" in="SourceAlpha" result="shadowOffsetOuter1"></feOffset>
            <feGaussianBlur stdDeviation="2" in="shadowOffsetOuter1" result="shadowBlurOuter1"></feGaussianBlur>
            <feColorMatrix values="0 0 0 0 0   0 0 0 0 0   0 0 0 0 0  0 0 0 0.09 0" type="matrix" in="shadowBlurOuter1"></feColorMatrix>
        </filter>
    </defs>
    <g id="Page-1" stroke="none" stroke-width="1" fill="none" fill-rule="evenodd">
        <g id="域名管理" transform="translate(-1199.000000, -344.000000)">
            <g id="Group-6" transform="translate(210.000000, 275.000000)">
                <g id="icon" transform="translate(907.000000, 72.000000)">
                    <g id="Group" transform="translate(86.000000, 1.000000)">
                        <g id="Shape">
                            <use fill="black" fill-opacity="1" filter="url(#filter-2)" xlink:href="#path-1"></use>
                            <use fill="#8B9199" fill-rule="evenodd" xlink:href="#path-1"></use>
                        </g>
                    </g>
                </g>
            </g>
        </g>
    </g>
</svg>