<?xml version="1.0" encoding="UTF-8" standalone="no"?>
<svg width="15px" height="15px" viewBox="0 0 15 15" version="1.1" xmlns="http://www.w3.org/2000/svg" xmlns:xlink="http://www.w3.org/1999/xlink">
    <!-- Generator: Sketch 39.1 (31720) - http://www.bohemiancoding.com/sketch -->
    <title>Group 13</title>
    <desc>Created with Sketch.</desc>
    <defs></defs>
    <g id="Page-1" stroke="none" stroke-width="1" fill="none" fill-rule="evenodd">
        <g id="源站模版_模版编辑" transform="translate(-704.000000, -297.000000)" fill="#E8EAEB">
            <g id="编辑" transform="translate(147.000000, 68.000000)">
                <g id="内容" transform="translate(0.000000, 158.000000)">
                    <g id="右">
                        <g id="Group-12-Copy-2" transform="translate(47.000000, 71.000000)">
                            <g id="icon-copy-2" transform="translate(480.000000, 0.000000)">
                                <g id="Group-10-Copy-2" transform="translate(30.000000, 0.000000)">
                                    <g id="Group-13">
                                        <path d="M7.5,15 C11.6421356,15 15,11.6421356 15,7.5 C15,3.35786438 11.6421356,0 7.5,0 C3.35786438,0 0,3.35786438 0,7.5 C0,11.6421356 3.35786438,15 7.5,15 Z M5,4.83048046 C5,4.37181877 5.36988735,4 5.83333333,4 C6.29357062,4 6.66666667,4.3763504 6.66666667,4.83048046 L6.66666667,10.1695195 C6.66666667,10.6281812 6.29677931,11 5.83333333,11 C5.37309604,11 5,10.6236496 5,10.1695195 L5,4.83048046 Z M8.33333333,4.83048046 C8.33333333,4.37181877 8.70322069,4 9.16666667,4 C9.62690396,4 10,4.3763504 10,4.83048046 L10,10.1695195 C10,10.6281812 9.63011265,11 9.16666667,11 C8.70642938,11 8.33333333,10.6236496 8.33333333,10.1695195 L8.33333333,4.83048046 Z" id="Combined-Shape"></path>
                                    </g>
                                </g>
                            </g>
                        </g>
                    </g>
                </g>
            </g>
        </g>
    </g>
</svg>