<?xml version="1.0" encoding="UTF-8" standalone="no"?>
<svg width="15px" height="15px" viewBox="0 0 15 15" version="1.1" xmlns="http://www.w3.org/2000/svg" xmlns:xlink="http://www.w3.org/1999/xlink">
    <!-- Generator: Sketch 39.1 (31720) - http://www.bohemiancoding.com/sketch -->
    <title>Group 10</title>
    <desc>Created with Sketch.</desc>
    <defs></defs>
    <g id="Page-1" stroke="none" stroke-width="1" fill="none" fill-rule="evenodd">
        <g id="源站模版_添加纪录" transform="translate(-704.000000, -350.000000)" fill="#E8EAEB">
            <g id="添加" transform="translate(129.000000, 226.000000)">
                <g id="右">
                    <g id="Group-12-Copy-2" transform="translate(65.000000, 124.000000)">
                        <g id="icon-copy-2" transform="translate(480.000000, 0.000000)">
                            <g id="Group-10" transform="translate(30.000000, 0.000000)">
                                <path d="M7.5,15 C11.6421356,15 15,11.6421356 15,7.5 C15,3.35786438 11.6421356,0 7.5,0 C3.35786438,0 0,3.35786438 0,7.5 C0,11.6421356 3.35786438,15 7.5,15 Z M7.26967923,10.5766972 C6.30684619,11.1268875 5.52631579,10.6760829 5.52631579,9.58048955 L5.52631579,6.13042548 C5.52631579,5.03004486 6.29813264,4.57904831 7.26967923,5.13421779 L10.2884853,6.85924983 C11.2513183,7.40944014 11.2600319,8.29649572 10.2884853,8.8516652 L7.26967923,10.5766972 Z" id="Combined-Shape"></path>
                            </g>
                        </g>
                    </g>
                </g>
            </g>
        </g>
    </g>
</svg>