<?xml version="1.0" encoding="UTF-8" standalone="no"?>
<svg width="15px" height="15px" viewBox="0 0 15 15" version="1.1" xmlns="http://www.w3.org/2000/svg" xmlns:xlink="http://www.w3.org/1999/xlink">
    <!-- Generator: Sketch 39.1 (31720) - http://www.bohemiancoding.com/sketch -->
    <title>Group</title>
    <desc>Created with Sketch.</desc>
    <defs></defs>
    <g id="Page-1" stroke="none" stroke-width="1" fill="none" fill-rule="evenodd" opacity="0.900000036">
        <g id="源站模版_添加纪录" transform="translate(-673.000000, -350.000000)" fill="#FFFFFF">
            <g id="添加" transform="translate(129.000000, 226.000000)">
                <g id="右">
                    <g id="Group-12-Copy-2" transform="translate(65.000000, 124.000000)">
                        <g id="icon-copy-2" transform="translate(480.000000, 0.000000)">
                            <g id="Group" transform="translate(0.000000, 1.000000)">
                                <path d="M0,9.3823523 L0,11.8931257 L2.53867083,11.8931257 L9.88743025,4.55903453 L7.34875941,2.04826116 L0,9.3823523 L0,9.3823523 Z M11.8248233,2.64291497 C12.092043,2.37863173 12.092043,1.98219035 11.8248233,1.71789061 L10.2882598,0.198212432 C10.0210401,-0.0660708108 9.62019382,-0.0660708108 9.35295742,0.198212432 L8.15043528,1.38752004 L10.6891061,3.89829339 L11.8248233,2.64291497 L11.8248233,2.64291497 Z M6.0126274,10.5716599 L4.6764954,11.8931091 L13.3614035,11.8931091 L13.3614035,10.5716599 L6.0126274,10.5716599 L6.0126274,10.5716599 Z" id="Shape"></path>
                            </g>
                        </g>
                    </g>
                </g>
            </g>
        </g>
    </g>
</svg>