<?xml version="1.0" encoding="UTF-8" standalone="no"?>
<svg width="15px" height="15px" viewBox="0 0 15 15" version="1.1" xmlns="http://www.w3.org/2000/svg" xmlns:xlink="http://www.w3.org/1999/xlink">
    <!-- Generator: Sketch 39.1 (31720) - http://www.bohemiancoding.com/sketch -->
    <title>Group</title>
    <desc>Created with Sketch.</desc>
    <defs></defs>
    <g id="Page-1" stroke="none" stroke-width="1" fill="none" fill-rule="evenodd" opacity="0.400000006">
        <g id="源站模版_添加纪录" transform="translate(-733.000000, -350.000000)" fill="#FFFFFF">
            <g id="添加" transform="translate(129.000000, 226.000000)">
                <g id="右">
                    <g id="Group-12-Copy-2" transform="translate(65.000000, 124.000000)">
                        <g id="icon-copy-2" transform="translate(480.000000, 0.000000)">
                            <g id="Group" transform="translate(61.000000, 0.000000)">
                                <path d="M11.7055476,2.58148383 C11.593108,2.4218648 11.4414643,2.28878222 11.2507927,2.18233215 C11.060057,2.07596217 10.818026,2.02271312 10.5245557,2.02271312 L9.8498382,2.02271312 C9.61501389,2.02271312 9.39500324,2.0173802 9.18963006,2.00671438 L9.18963006,1.01700271 C9.18963006,0.740283814 9.1236653,0.50350571 8.9916557,0.306668403 C8.85958205,0.109767024 8.62241958,0.011308338 8.28010426,0.011308338 L3.68841865,0.0113083224 C3.43405635,0.0113083224 3.21896221,0.109767024 3.04289603,0.306668387 C2.86682986,0.503505695 2.77882879,0.740283814 2.77882879,1.0170027 L2.77882879,1.99082772 L1.47325818,1.99082772 C1.2189279,1.99082772 0.998949267,2.03869581 0.813082069,2.13448006 C0.62727891,2.23028031 0.475731322,2.34997455 0.358327172,2.49367493 C0.240923022,2.63731123 0.15295399,2.79430385 0.0942439176,2.96457269 C0.0355658654,3.13484153 0.00627488487,3.28922373 0.00627488487,3.42747909 C0.00627488487,3.70419799 0.0111593781,3.86916595 0.0209604157,3.92233493 C0.0209604157,3.9649662 0.02590898,3.99150264 0.0355658654,4.00223254 L0.945075659,4.00223254 L0.945075659,12.2234374 C0.945075659,12.5001563 0.991566485,12.7475843 1.08445205,12.9658013 C1.17736964,13.1839542 1.30457482,13.3702058 1.46595546,13.5244919 C1.62735213,13.67881 1.82045801,13.7984883 2.04536918,13.8837028 C2.2703284,13.9687731 2.50984503,14.0113083 2.76412725,14.0113083 L9.30695411,14.0113083 C9.58080637,14.0113083 9.82291739,13.9661948 10.033143,13.8757114 C10.2434328,13.785196 10.4219172,13.6654217 10.5686283,13.5165165 C10.7153074,13.3675473 10.827795,13.194588 10.905979,12.9977026 C10.9842912,12.8008653 11.0233832,12.5958925 11.0233832,12.3830885 L11.0233832,4.00224855 L11.991571,4.00224855 L11.991571,3.90646432 C11.991571,3.87457894 11.9940053,3.83729661 11.9988898,3.79468136 C12.0038383,3.75208212 12.0062566,3.69358023 12.0062566,3.61917569 C12.0062566,3.45944455 11.9842843,3.28658132 11.9402278,3.10032976 C11.8962352,2.91404616 11.8180031,2.74103879 11.7055476,2.58148383 L11.7055476,2.58148383 L11.7055476,2.58148383 Z M3.68841865,1.0170828 L8.28012025,1.0170828 L8.28012025,2.0227932 L3.68841865,2.0227932 L3.68841865,1.0170828 L3.68841865,1.0170828 L3.68841865,1.0170828 Z M3.7030241,11.4732424 C3.7030241,11.9095002 3.54651194,12.1276532 3.23363172,12.1276532 C3.06730251,12.1276532 2.95242868,12.0745483 2.88889817,11.9680822 C2.82528758,11.8616482 2.79357838,11.6966962 2.79357838,11.4732424 L2.79357838,4.06614741 L3.7030241,4.06614741 L3.7030241,11.4732424 L3.7030241,11.4732424 L3.7030241,11.4732424 Z M6.43168157,11.4732424 C6.43168157,11.6966962 6.40234255,11.8589897 6.3436645,11.9601069 C6.28500245,12.0611439 6.1724668,12.1117345 6.00629774,12.1117345 C5.68355244,12.1117345 5.52218781,11.8989305 5.52218781,11.4732424 L5.52218781,4.06614741 L6.4316976,4.06614741 L6.4316976,11.4732424 L6.43168157,11.4732424 L6.43168157,11.4732424 Z M9.20423549,11.4412129 C9.20423549,11.6647468 9.17496052,11.8270403 9.11628247,11.9280774 C9.05763645,12.0292586 8.94031237,12.0798812 8.7642622,12.0798812 C8.4415009,12.0798812 8.28013626,11.866885 8.28013626,11.4412129 L8.28013626,4.06614741 L9.2042515,4.06614741 L9.2042515,11.4412129 L9.20423549,11.4412129 L9.20423549,11.4412129 Z" id="Shape"></path>
                            </g>
                        </g>
                    </g>
                </g>
            </g>
        </g>
    </g>
</svg>