<?xml version="1.0" encoding="UTF-8" standalone="no"?>
<svg width="14px" height="14px" viewBox="0 0 14 14" version="1.1" xmlns="http://www.w3.org/2000/svg" xmlns:xlink="http://www.w3.org/1999/xlink">
    <!-- Generator: Sketch 39.1 (31720) - http://www.bohemiancoding.com/sketch -->
    <title>iconfont-sousuo</title>
    <desc>Created with Sketch.</desc>
    <defs></defs>
    <g id="Page-1" stroke="none" stroke-width="1" fill="none" fill-rule="evenodd">
        <g id="下拉样式" transform="translate(-745.000000, -280.000000)" fill="#EEEEEE">
            <g id="Group-9" transform="translate(745.000000, 280.000000)">
                <path d="M13.1286619,13.1287373 C12.6336199,13.6238736 11.8308449,13.6238736 11.3357275,13.1287373 L9.09804698,10.8909814 C8.17803416,11.4807526 7.09050635,11.8328809 5.91644987,11.8328809 C2.64896505,11.8328809 0,9.18399125 0,5.91643102 C0,2.64888964 2.64896505,0 5.91644987,0 C9.18408551,0 11.8328809,2.64888964 11.8328809,5.91643102 C11.8328809,7.09043095 11.4808468,8.17795875 10.8910568,9.09812238 L13.1286619,11.3357275 C13.6237794,11.8308449 13.6237794,12.6336199 13.1286619,13.1287373 L13.1286619,13.1287373 Z M5.91644987,1.69041964 C3.5825887,1.69041964 1.69049504,3.58249444 1.69049504,5.91644987 C1.69049504,8.25038646 3.58256985,10.1424613 5.91644987,10.1424613 C8.25048071,10.1424613 10.1424613,8.25038646 10.1424613,5.91644987 C10.1424613,3.58249444 8.25048071,1.69041964 5.91644987,1.69041964 L5.91644987,1.69041964 Z" id="iconfont-sousuo"></path>
            </g>
        </g>
    </g>
</svg>