<?xml version="1.0" encoding="UTF-8" standalone="no"?>
<svg width="14px" height="14px" viewBox="0 0 14 14" version="1.1" xmlns="http://www.w3.org/2000/svg" xmlns:xlink="http://www.w3.org/1999/xlink">
    <!-- Generator: Sketch 39.1 (31720) - http://www.bohemiancoding.com/sketch -->
    <title>iconfont-sousuo</title>
    <desc>Created with Sketch.</desc>
    <defs></defs>
    <g id="Page-1" stroke="none" stroke-width="1" fill="none" fill-rule="evenodd">
        <g id="搜索-" transform="translate(-1244.000000, -184.000000)" fill="#FFFFFF">
            <g id="默认" transform="translate(1103.000000, 176.000000)">
                <g id="Group-10" transform="translate(141.000000, 8.000000)">
                    <path d="M13.3786619,13.3787373 C12.8836199,13.8738736 12.0808449,13.8738736 11.5857275,13.3787373 L9.34804698,11.1409814 C8.42803416,11.7307526 7.34050635,12.0828809 6.16644987,12.0828809 C2.89896505,12.0828809 0.25,9.43399125 0.25,6.16643102 C0.25,2.89888964 2.89896505,0.25 6.16644987,0.25 C9.43408551,0.25 12.0828809,2.89888964 12.0828809,6.16643102 C12.0828809,7.34043095 11.7308468,8.42795875 11.1410568,9.34812238 L13.3786619,11.5857275 C13.8737794,12.0808449 13.8737794,12.8836199 13.3786619,13.3787373 L13.3786619,13.3787373 Z M6.16644987,1.94041964 C3.8325887,1.94041964 1.94049504,3.83249444 1.94049504,6.16644987 C1.94049504,8.50038646 3.83256985,10.3924613 6.16644987,10.3924613 C8.50048071,10.3924613 10.3924613,8.50038646 10.3924613,6.16644987 C10.3924613,3.83249444 8.50048071,1.94041964 6.16644987,1.94041964 L6.16644987,1.94041964 Z" id="iconfont-sousuo"></path>
                </g>
            </g>
        </g>
    </g>
</svg>