<?xml version="1.0" encoding="UTF-8" standalone="no"?>
<svg width="30px" height="30px" viewBox="0 0 30 30" version="1.1" xmlns="http://www.w3.org/2000/svg" xmlns:xlink="http://www.w3.org/1999/xlink">
    <!-- Generator: Sketch 39.1 (31720) - http://www.bohemiancoding.com/sketch -->
    <title>Oval 2</title>
    <desc>Created with Sketch.</desc>
    <defs></defs>
    <g id="Page-1" stroke="none" stroke-width="1" fill="none" fill-rule="evenodd">
        <g id="搜索-" transform="translate(-1236.000000, -176.000000)">
            <g id="hover" transform="translate(1236.000000, 176.000000)">
                <circle id="Oval-2" fill="#00B1FF" cx="15" cy="15" r="15"></circle>
                <path d="M21.3786619,21.3787373 C20.8836199,21.8738736 20.0808449,21.8738736 19.5857275,21.3787373 L17.348047,19.1409814 C16.4280342,19.7307526 15.3405064,20.0828809 14.1664499,20.0828809 C10.898965,20.0828809 8.25,17.4339913 8.25,14.166431 C8.25,10.8988896 10.898965,8.25 14.1664499,8.25 C17.4340855,8.25 20.0828809,10.8988896 20.0828809,14.166431 C20.0828809,15.3404309 19.7308468,16.4279588 19.1410568,17.3481224 L21.3786619,19.5857275 C21.8737794,20.0808449 21.8737794,20.8836199 21.3786619,21.3787373 L21.3786619,21.3787373 Z M14.1664499,9.94041964 C11.8325887,9.94041964 9.94049504,11.8324944 9.94049504,14.1664499 C9.94049504,16.5003865 11.8325698,18.3924613 14.1664499,18.3924613 C16.5004807,18.3924613 18.3924613,16.5003865 18.3924613,14.1664499 C18.3924613,11.8324944 16.5004807,9.94041964 14.1664499,9.94041964 L14.1664499,9.94041964 Z" id="iconfont-sousuo" fill="#FFFFFF"></path>
            </g>
        </g>
    </g>
</svg>