<?xml version="1.0" encoding="UTF-8" standalone="no"?>
<svg width="14px" height="14px" viewBox="0 0 14 14" version="1.1" xmlns="http://www.w3.org/2000/svg" xmlns:xlink="http://www.w3.org/1999/xlink">
    <!-- Generator: Sketch 39.1 (31720) - http://www.bohemiancoding.com/sketch -->
    <title>iconfont-cuowu</title>
    <desc>Created with Sketch.</desc>
    <defs></defs>
    <g id="Page-1" stroke="none" stroke-width="1" fill="none" fill-rule="evenodd">
        <g id="搜索-" transform="translate(-1245.000000, -184.000000)" fill="#FFFFFF">
            <g id="输入状态" transform="translate(1103.000000, 176.000000)">
                <g id="Group-17" transform="translate(143.000000, 8.000000)">
                    <g id="Group-12" transform="translate(0.000000, 1.000000)">
                        <path d="M10.725,1.65 L6.875,5.5 L10.725,9.35 C10.8625,9.4875 11,9.7625 11,10.0375 C11,10.5875 10.5875,11 10.0375,11 C9.7625,11 9.4875,10.8625 9.35,10.725 L5.5,6.875 L1.65,10.725 C1.5125,10.8625 1.2375,11 0.9625,11 C0.4125,11 0,10.5875 0,10.0375 C0,9.7625 0.1375,9.4875 0.275,9.35 L4.125,5.5 L0.275,1.65 C0.1375,1.5125 0,1.2375 0,0.9625 C0,0.4125 0.4125,-3.90798505e-14 0.9625,-3.90798505e-14 C1.2375,-3.90798505e-14 1.5125,0.1375 1.65,0.275 L5.5,4.125 L9.35,0.275 C9.4875,0.1375 9.7625,-3.90798505e-14 10.0375,-3.90798505e-14 C10.5875,-3.90798505e-14 11,0.4125 11,0.9625 C11,1.2375 10.8625,1.5125 10.725,1.65" id="iconfont-cuowu"></path>
                    </g>
                </g>
            </g>
        </g>
    </g>
</svg>