<?xml version="1.0" encoding="UTF-8" standalone="no"?>
<svg width="14px" height="14px" viewBox="0 0 14 14" version="1.1" xmlns="http://www.w3.org/2000/svg" xmlns:xlink="http://www.w3.org/1999/xlink">
    <!-- Generator: Sketch 39.1 (31720) - http://www.bohemiancoding.com/sketch -->
    <title>iconfont-sousuo</title>
    <desc>Created with Sketch.</desc>
    <defs></defs>
    <g id="Page-1" stroke="none" stroke-width="1" fill="none" fill-rule="evenodd">
        <g id="内容_日志下载" transform="translate(-639.000000, -222.000000)" fill="#FFFFFF">
            <g id="Group-2" transform="translate(639.000000, 222.000000)">
                <path d="M13.6286619,13.1287373 C13.1336199,13.6238736 12.3308449,13.6238736 11.8357275,13.1287373 L9.59804698,10.8909814 C8.67803416,11.4807526 7.59050635,11.8328809 6.41644987,11.8328809 C3.14896505,11.8328809 0.5,9.18399125 0.5,5.91643102 C0.5,2.64888964 3.14896505,0 6.41644987,0 C9.68408551,0 12.3328809,2.64888964 12.3328809,5.91643102 C12.3328809,7.09043095 11.9808468,8.17795875 11.3910568,9.09812238 L13.6286619,11.3357275 C14.1237794,11.8308449 14.1237794,12.6336199 13.6286619,13.1287373 L13.6286619,13.1287373 Z M6.41644987,1.69041964 C4.0825887,1.69041964 2.19049504,3.58249444 2.19049504,5.91644987 C2.19049504,8.25038646 4.08256985,10.1424613 6.41644987,10.1424613 C8.75048071,10.1424613 10.6424613,8.25038646 10.6424613,5.91644987 C10.6424613,3.58249444 8.75048071,1.69041964 6.41644987,1.69041964 L6.41644987,1.69041964 Z" id="iconfont-sousuo"></path>
            </g>
        </g>
    </g>
</svg>