<?xml version="1.0" encoding="UTF-8" standalone="no"?>
<svg width="17px" height="17px" viewBox="0 0 17 17" version="1.1" xmlns="http://www.w3.org/2000/svg" xmlns:xlink="http://www.w3.org/1999/xlink">
    <!-- Generator: Sketch 39.1 (31720) - http://www.bohemiancoding.com/sketch -->
    <title>Group</title>
    <desc>Created with Sketch.</desc>
    <defs></defs>
    <g id="Page-1" stroke="none" stroke-width="1" fill="none" fill-rule="evenodd" opacity="0.900000036">
        <g id="基础_联系人" transform="translate(-1123.000000, -303.000000)" fill="#FFFFFF">
            <g id="右" transform="translate(170.000000, 232.000000)">
                <g id="01" transform="translate(99.000000, 71.000000)">
                    <g id="-" transform="translate(854.000000, 0.000000)">
                        <g id="Group" transform="translate(0.000000, 1.000000)">
                            <path d="M0,12.0700053 L0,15.3000106 L3.2300053,15.3000106 L12.5799894,5.86500796 L9.34998407,2.63500264 L0,12.0700053 L0,12.0700053 Z M15.0449761,3.39999999 C15.3849655,3.06001061 15.3849655,2.5500053 15.0449761,2.20999469 L13.0899734,0.254992035 C12.7499841,-0.0849973451 12.2399787,-0.0849973451 11.8999681,0.254992035 L10.3699735,1.78498672 L13.5999788,5.01499202 L15.0449761,3.39999999 L15.0449761,3.39999999 Z M7.64999468,13.6 L5.95000531,15.2999894 L17,15.2999894 L17,13.6 L7.64999468,13.6 L7.64999468,13.6 Z" id="Shape"></path>
                        </g>
                    </g>
                </g>
            </g>
        </g>
    </g>
</svg>