<?xml version="1.0" encoding="UTF-8" standalone="no"?>
<svg width="17px" height="17px" viewBox="0 0 17 17" version="1.1" xmlns="http://www.w3.org/2000/svg" xmlns:xlink="http://www.w3.org/1999/xlink">
    <!-- Generator: Sketch 39.1 (31720) - http://www.bohemiancoding.com/sketch -->
    <title>Shape Copy</title>
    <desc>Created with Sketch.</desc>
    <defs></defs>
    <g id="Page-1" stroke="none" stroke-width="1" fill="none" fill-rule="evenodd" opacity="0.900000036">
        <g id="基础_联系人" transform="translate(-1163.000000, -303.000000)" fill="#FFFFFF">
            <g id="右" transform="translate(170.000000, 232.000000)">
                <g id="01" transform="translate(99.000000, 71.000000)">
                    <g id="-" transform="translate(854.000000, 0.000000)">
                        <path d="M54.1899356,0.547902343 C53.8663098,0.244355603 53.4210388,0.0550444032 52.9345348,0.0550444032 L52.9345348,0.0550444032 L43.8199167,0.0550444032 C43.3323569,0.0550444032 42.8881417,0.244355603 42.5645159,0.547902343 C42.2356113,0.856727985 42.0314807,1.28612385 42.0314807,1.75782778 L42.0325365,16.4112284 C42.0325365,16.5095888 42.0589694,16.6100608 42.113966,16.6999558 C42.2768443,16.9664926 42.6311453,17.053201 42.902961,16.8935093 L48.0387806,13.8962036 C48.1434949,13.8348723 48.2598229,13.8041971 48.37617,13.8041971 C48.4925171,13.8041971 48.60992,13.8348531 48.7146151,13.8962036 L53.8144805,16.8734111 C53.9085987,16.9389847 54.02389,16.9770504 54.1465718,16.9770504 C54.4649186,16.9770504 54.7229708,16.7242771 54.7229708,16.4133399 L54.7229708,1.75782778 C54.7229708,1.28506809 54.5188595,0.856727985 54.1899356,0.547902343 L54.1899356,0.547902343 Z M52.2260287,7.71383593 C52.2260287,7.86103105 52.1067062,7.98035354 51.9595111,7.98035354 L49.2620665,7.98035354 L49.2620665,10.6777981 C49.2620665,10.8249932 49.142744,10.9443349 48.9955489,10.9443349 L47.7589218,10.9443349 C47.6117267,10.9443349 47.4924042,10.8250124 47.4924042,10.6778173 L47.4924042,7.98035354 L44.7949404,7.98035354 C44.6477453,7.98035354 44.5284228,7.86103105 44.5284228,7.71383593 L44.5284228,6.47720882 C44.5284228,6.3300137 44.6477453,6.21069122 44.7949404,6.21069122 L47.4924042,6.21069122 L47.4924042,3.51322744 C47.4924042,3.36603232 47.6117267,3.24670984 47.7589218,3.24670984 L48.9955489,3.24670984 C49.142744,3.24670984 49.2620665,3.36603232 49.2620665,3.51322744 L49.2620665,6.21069122 L51.9595111,6.21069122 C52.1067062,6.21069122 52.2260287,6.3300137 52.2260287,6.47720882 L52.2260287,7.71383593 L52.2260287,7.71383593 Z" id="Shape-Copy"></path>
                    </g>
                </g>
            </g>
        </g>
    </g>
</svg>