<?xml version="1.0" encoding="UTF-8" standalone="no"?>
<svg width="17px" height="17px" viewBox="0 0 17 17" version="1.1" xmlns="http://www.w3.org/2000/svg" xmlns:xlink="http://www.w3.org/1999/xlink">
    <!-- Generator: Sketch 39.1 (31720) - http://www.bohemiancoding.com/sketch -->
    <title>Shape Copy</title>
    <desc>Created with Sketch.</desc>
    <defs></defs>
    <g id="Page-1" stroke="none" stroke-width="1" fill="none" fill-rule="evenodd" opacity="0.900000036">
        <g id="基础_联系人" transform="translate(-1163.000000, -353.000000)" fill="#00B1FF">
            <g id="右" transform="translate(170.000000, 232.000000)">
                <g id="01-copy" transform="translate(99.000000, 121.000000)">
                    <g id="Group-11-Copy-10" transform="translate(854.000000, 0.000000)">
                        <path d="M54.1584549,0.492857939 C53.8348291,0.1893112 53.3895581,0 52.9030541,0 L52.9030541,0 L43.788436,0 C43.3008762,0 42.856661,0.1893112 42.5330352,0.492857939 C42.2041305,0.801683582 42,1.23107945 42,1.70278338 L42.0010558,16.356184 C42.0010558,16.4545444 42.0274887,16.5550164 42.0824853,16.6449114 C42.2453636,16.9114482 42.5996646,16.9981566 42.8714803,16.8384649 L48.0072999,13.8411592 C48.1120142,13.7798279 48.2283422,13.7491527 48.3446893,13.7491527 C48.4610364,13.7491527 48.5784393,13.7798087 48.6831344,13.8411592 L53.7829998,16.8183667 C53.8771179,16.8839403 53.9924093,16.922006 54.1150911,16.922006 C54.4334379,16.922006 54.6914901,16.6692327 54.6914901,16.3582955 L54.6914901,1.70278338 C54.6914901,1.23002368 54.4873788,0.801683582 54.1584549,0.492857939 L54.1584549,0.492857939 Z M52.194548,7.65879153 C52.194548,7.80598665 52.0752255,7.92530913 51.9280304,7.92530913 L49.2305858,7.92530913 L49.2305858,10.6227537 C49.2305858,10.7699488 49.1112633,10.8892905 48.9640682,10.8892905 L47.7274411,10.8892905 C47.580246,10.8892905 47.4609235,10.769968 47.4609235,10.6227729 L47.4609235,7.92530913 L44.7634597,7.92530913 C44.6162646,7.92530913 44.4969421,7.80598665 44.4969421,7.65879153 L44.4969421,6.42216442 C44.4969421,6.2749693 44.6162646,6.15564682 44.7634597,6.15564682 L47.4609235,6.15564682 L47.4609235,3.45818304 C47.4609235,3.31098792 47.580246,3.19166544 47.7274411,3.19166544 L48.9640682,3.19166544 C49.1112633,3.19166544 49.2305858,3.31098792 49.2305858,3.45818304 L49.2305858,6.15564682 L51.9280304,6.15564682 C52.0752255,6.15564682 52.194548,6.2749693 52.194548,6.42216442 L52.194548,7.65879153 L52.194548,7.65879153 Z" id="Shape-Copy"></path>
                    </g>
                </g>
            </g>
        </g>
    </g>
</svg>