<?xml version="1.0" encoding="UTF-8" standalone="no"?>
<svg width="12px" height="12px" viewBox="0 0 12 12" version="1.1" xmlns="http://www.w3.org/2000/svg" xmlns:xlink="http://www.w3.org/1999/xlink">
    <!-- Generator: Sketch 39.1 (31720) - http://www.bohemiancoding.com/sketch -->
    <title>Combined Shape</title>
    <desc>Created with Sketch.</desc>
    <defs></defs>
    <g id="Page-1" stroke="none" stroke-width="1" fill="none" fill-rule="evenodd" opacity="0.200000003">
        <g id="添加模版" transform="translate(-379.000000, -212.000000)" fill="#FFFFFF">
            <g id="添加域名" transform="translate(117.000000, 0.000000)">
                <g id="编辑" transform="translate(0.000000, 148.000000)">
                    <g id="内容" transform="translate(0.000000, 48.000000)">
                        <g id="Group-6" transform="translate(196.000000, 12.000000)">
                            <g id="Group-8" transform="translate(66.000000, 4.000000)">
                                <g id="Group-10">
                                    <path d="M4.49101706,4.91636227 C4.49101706,3.78102515 5.00522573,3.21335657 6.03364303,3.21335657 C6.49854402,3.21335657 6.85074172,3.33377113 7.09023616,3.5746002 C7.32973062,3.8154293 7.44947782,4.09238275 7.44947782,4.40546057 C7.44947782,4.71853838 7.3772773,4.95076642 7.23287623,5.10214471 C7.08847517,5.25352299 6.85074172,5.49607228 6.51967587,5.8297926 C6.18861003,6.1635129 5.97729141,6.41638345 5.88572,6.58840422 C5.79414859,6.76042499 5.7166651,6.9616893 5.65326951,7.19219713 C5.58987392,7.42270498 5.55817612,7.73062217 5.55817612,8.1159487 L6.38231877,8.1159487 C6.37527481,7.78566882 6.40168964,7.52247703 6.46156326,7.32637335 C6.52143686,7.13026965 6.60948629,6.9616893 6.72571154,6.82063226 C6.84193678,6.67957522 7.07790924,6.44218654 7.43362892,6.10846624 C7.78934863,5.77474594 8.0217991,5.49607228 8.1309804,5.27244527 C8.24016168,5.04881826 8.29475233,4.79938814 8.29475233,4.52415489 C8.29475233,3.91176093 8.08167273,3.42150173 7.65551349,3.05337726 C7.22935425,2.6852528 6.69577472,2.50119056 6.05477489,2.50119056 C5.73779695,2.50119056 5.43666792,2.54935639 5.15138777,2.64568802 C4.86610763,2.74201965 4.60724231,2.89167773 4.37479182,3.09466225 C4.14234133,3.29764677 3.97328642,3.5281546 3.86762712,3.78618576 C3.7619678,4.04421694 3.7020942,4.42094244 3.68800629,4.91636227 L4.49101706,4.91636227 Z M6,12 C9.3137085,12 12,9.3137085 12,6 C12,2.6862915 9.3137085,0 6,0 C2.6862915,0 0,2.6862915 0,6 C0,9.3137085 2.6862915,12 6,12 Z M6.45628029,8.95196968 L5.53704426,8.95196968 L5.53704426,9.90152436 L6.45628029,9.90152436 L6.45628029,8.95196968 Z" id="Combined-Shape"></path>
                                </g>
                            </g>
                        </g>
                    </g>
                </g>
            </g>
        </g>
    </g>
</svg>