<?xml version="1.0" encoding="UTF-8" standalone="no"?>
<svg width="22px" height="20px" viewBox="0 0 22 20" version="1.1" xmlns="http://www.w3.org/2000/svg" xmlns:xlink="http://www.w3.org/1999/xlink">
    <!-- Generator: Sketch 39.1 (31720) - http://www.bohemiancoding.com/sketch -->
    <title>iconfont-zhuye</title>
    <desc>Created with Sketch.</desc>
    <defs></defs>
    <g id="Page-1" stroke="#8b9199" stroke-width="1" fill="#8b9199" fill-rule="evenodd">
        <g id="流量分析" transform="translate(-46.000000, -94.000000)" fill="#8b9199">
            <g id="侧边主导航">
                <g id="01" transform="translate(44.000000, 94.000000)">
                    <path d="M23.7359614,10.2446645 C23.467499,10.4995532 23.4499059,10.4775837 22.6401674,10.4775837 L21.0383373,10.4775837 L21.0383373,18.1072381 C21.0383373,19.2719148 20.3606141,19.9531291 19.1284268,19.9531291 L16.8884915,19.9531291 L16.0215419,19.9399582 L16.0215419,13.3475093 C16.0215419,12.556394 15.5726631,12.3542427 15.0533851,12.3542427 L11.0795776,12.3542427 C10.4986835,12.3542427 10.0410216,12.573991 10.0410216,13.3079428 L10.0410216,19.9487299 L8.88801654,19.9531291 L6.93410987,19.9531291 C5.75913362,19.9531291 5.0242262,19.3466217 5.0242262,17.9973639 L5.0242262,10.481983 L3.3739681,10.481983 C2.50264041,10.481983 2.45421243,10.3589379 2.24739297,10.130391 C1.83813219,9.67329743 1.86013026,9.10635648 2.90309123,8.3240665 L12.0697324,0.553743171 C12.338168,0.364762856 12.6154135,1.77635684e-15 12.9586532,1.77635684e-15 L13.1038834,1.77635684e-15 C13.4515281,1.77635684e-15 13.7243955,0.290055947 13.997236,0.479036262 L23.0758581,8.31966724 C23.9515908,8.85144095 24.2772374,9.7260617 23.7359614,10.2446645" id="iconfont-zhuye"></path>
                </g>
            </g>
        </g>
    </g>
</svg>