<?xml version="1.0" encoding="UTF-8" standalone="no"?>
<svg width="22px" height="26px" viewBox="0 0 22 26" version="1.1" xmlns="http://www.w3.org/2000/svg" xmlns:xlink="http://www.w3.org/1999/xlink">
    <!-- Generator: Sketch 39.1 (31720) - http://www.bohemiancoding.com/sketch -->
    <title>编辑 (2)</title>
    <desc>Created with Sketch.</desc>
    <defs>
        <path d="M57.9449765,13.1027213 C58.5629273,12.043146 59.6940083,11.4866469 60.7611651,11.612623 C60.917276,10.9502818 61,10.2597227 61,9.54985797 C61,8.92361752 60.935648,8.31243997 60.8133111,7.7223756 C59.7327152,7.86494604 58.5810727,7.30327525 57.958919,6.22650318 C57.3267489,5.13243386 57.4299085,3.83300688 58.1247445,2.97160931 C57.1703611,2.08701485 56.0231732,1.40664834 54.7530445,1 C54.359055,2.04270479 53.2753635,2.79173307 52,2.79173307 C50.7246365,2.79173307 49.640945,2.04267969 49.2469555,1 C47.9887559,1.40283241 46.8512574,2.0743369 45.9022849,2.94683082 C46.5937233,3.81101504 46.6916482,5.11091901 46.0550235,6.20250294 C45.4284656,7.27686495 44.2743316,7.83389134 43.1942138,7.68680203 C43.0670701,8.28786232 43,8.91103999 43,9.54985797 C43,10.2470949 43.0796788,10.9257794 43.2304543,11.5773256 C44.2982654,11.4553913 45.4273331,12.0164847 46.0411061,13.078696 C46.6442084,14.1225054 46.578145,15.3532957 45.9674171,16.2122079 C46.9226058,17.0733544 48.0637536,17.7331098 49.3236897,18.1239923 C49.7693471,17.1768115 50.7998104,16.5134661 52,16.5134661 C53.2001896,16.5134661 54.2306529,17.1768115 54.6763103,18.1239923 C55.9244934,17.73675 57.0560525,17.0856307 58.00578,16.2362332 C57.3986762,15.3748859 57.3376714,14.1439951 57.9449765,13.1027213 L57.9449765,13.1027213 Z M52,13.4535365 C49.8387326,13.4535365 48.0866556,11.7058122 48.0866556,9.54985797 C48.0866556,7.39392886 49.8387326,5.64617949 52,5.64617949 C54.1612926,5.64617949 55.9133444,7.39392886 55.9133444,9.54985797 C55.9133444,11.7058122 54.1612926,13.4535365 52,13.4535365 L52,13.4535365 Z M52,12.0004622 C50.6432256,12.0004622 49.5433278,10.9032969 49.5433278,9.54985797 C49.5433278,8.19643477 50.6432256,7.09925372 52,7.09925372 C53.3567902,7.09925372 54.4566722,8.19643477 54.4566722,9.54985797 C54.4566722,10.9032969 53.3567902,12.0004622 52,12.0004622 L52,12.0004622 Z" id="path-1"></path>
        <filter x="-50%" y="-50%" width="200%" height="200%" filterUnits="objectBoundingBox" id="filter-2">
            <feOffset dx="0" dy="3" in="SourceAlpha" result="shadowOffsetOuter1"></feOffset>
            <feGaussianBlur stdDeviation="2" in="shadowOffsetOuter1" result="shadowBlurOuter1"></feGaussianBlur>
            <feColorMatrix values="0 0 0 0 0   0 0 0 0 0   0 0 0 0 0  0 0 0 0.09 0" type="matrix" in="shadowBlurOuter1"></feColorMatrix>
        </filter>
    </defs>
    <g id="Page-1" stroke="none" stroke-width="1" fill="none" fill-rule="evenodd">
        <g id="域名管理" transform="translate(-1158.000000, -344.000000)">
            <g id="Group-6" transform="translate(210.000000, 275.000000)">
                <g id="icon" transform="translate(907.000000, 72.000000)">
                    <g id="iconfont-icon02">
                        <use fill="black" fill-opacity="1" filter="url(#filter-2)" xlink:href="#path-1"></use>
                        <use fill="#8B9199" fill-rule="evenodd" xlink:href="#path-1"></use>
                    </g>
                </g>
            </g>
        </g>
    </g>
</svg>