<?xml version="1.0" encoding="UTF-8" standalone="no"?>
<svg width="194px" height="165px" viewBox="0 0 194 165" version="1.1" xmlns="http://www.w3.org/2000/svg" xmlns:xlink="http://www.w3.org/1999/xlink">
    <!-- Generator: Sketch 39.1 (31720) - http://www.bohemiancoding.com/sketch -->
    <title>暂无数据</title>
    <desc>Created with Sketch.</desc>
    <defs>
        <rect id="path-1" x="30.1699029" y="25.9570294" width="3.65695793" height="11.7986497" rx="1.82847896"></rect>
        <rect id="path-3" x="29.1019417" y="24.9956579" width="3.52750809" height="11.3616627" rx="1.76375405"></rect>
    </defs>
    <g id="Page-1" stroke="none" stroke-width="1" fill="none" fill-rule="evenodd" opacity="0.600000024">
        <g id="添加模版--空状态" transform="translate(-615.000000, -372.000000)">
            <g id="暂无数据" transform="translate(615.000000, 372.000000)">
                <g id="Group-6" transform="translate(1.000000, 0.000000)">
                    <g id="Page-1" transform="translate(47.330097, 64.539441)">
                        <path d="M102.314976,29.9238862 C102.314976,25.9333862 99.8467355,23.9392833 95.3391875,23.9392833 L11.626511,23.9392833 C7.04783057,23.9392833 4.65072208,25.9953291 4.65072208,29.9238862 L4.65072208,33.9139273 C4.65072208,37.8424844 6.97509368,39.8989891 11.626511,39.8989891 L95.3391875,39.8989891 C99.9922093,39.8989891 102.315511,37.9048862 102.315511,33.9139273 L102.314976,29.9238862 Z M84.2280922,5.984557 C83.4600762,5.25317181 81.76413,3.98999526 79.0616335,3.98999526 L25.5786238,3.98999526 C22.6584514,3.98999526 22.0524889,4.25566152 20.4126999,5.984557 L10.2937144,19.9492422 L96.1542686,19.9492422 L84.2280922,5.984557 Z M6.97616334,43.8885714 C3.12378215,43.8885714 -0.000160449029,41.2085081 -0.000160449029,37.9035096 L-0.000160449029,25.9343039 C-0.000160449029,25.2309077 0.167241371,24.5665126 0.427168799,23.9392833 C0.427168799,23.9392833 3.54847242,20.0610074 5.10912423,18.1218694 C9.43552557,12.7462378 18.0883283,1.99497469 18.0883283,1.99497469 C19.7270477,0.265620379 20.333545,-4.58836378e-05 23.2537173,-4.58836378e-05 L81.3870747,-4.58836378e-05 C84.0895712,-4.58836378e-05 85.7860523,1.26313067 86.5535335,1.99497469 C86.5535335,1.99497469 96.369087,12.7725485 101.276864,18.1613354 C103.030931,20.087318 106.539065,23.9392833 106.539065,23.9392833 C106.800062,24.5665126 106.965859,25.2309077 106.965859,25.9343039 L106.965859,37.9039685 C106.965859,41.2089669 103.843521,43.8885714 99.99007,43.8885714 L6.97616334,43.8885714 Z" id="Fill-1" fill="#00B1FF"></path>
                        <rect id="Mask" fill="#00B1FF" x="80.4530744" y="33.0362192" width="14.6278317" height="3.14630659" rx="1.5731533"></rect>
                        <rect id="Mask" fill="#00B1FF" x="13.7135922" y="25.9570294" width="3.65695793" height="11.7986497" rx="1.82847896"></rect>
                        <rect id="Mask" fill="#00B1FF" x="21.9417476" y="25.9570294" width="3.65695793" height="11.7986497" rx="1.82847896"></rect>
                        <mask id="mask-2" fill="white">
                            <use xlink:href="#path-1"></use>
                        </mask>
                        <use id="Mask" fill="#00B1FF" xlink:href="#path-1"></use>
                    </g>
                    <rect id="Rectangle-5" fill="#112E3E" transform="translate(67.197561, 54.578516) rotate(38.000000) translate(-67.197561, -54.578516) " x="63.6098769" y="44.6558895" width="7.17536893" height="19.8452524"></rect>
                    <rect id="Rectangle-5" fill="#113548" transform="translate(133.459697, 54.578516) scale(-1, 1) rotate(38.000000) translate(-133.459697, -54.578516) " x="129.872013" y="44.6558895" width="7.17536893" height="19.8452524"></rect>
                    <g id="Page-1-Copy" transform="translate(49.223301, 41.345979)">
                        <path d="M98.6932074,28.8155941 C98.6932074,24.9728904 96.3123378,23.0526432 91.964349,23.0526432 L11.2149531,23.0526432 C6.79834984,23.0526432 4.48609475,25.0325392 4.48609475,28.8155941 L4.48609475,32.657856 C4.48609475,36.4409109 6.72818771,38.4212487 11.2149531,38.4212487 L91.964349,38.4212487 C96.4526621,38.4212487 98.6937233,36.5010015 98.6937233,32.657856 L98.6932074,28.8155941 Z M81.2465668,5.76290674 C80.5057372,5.05860989 78.8698245,3.84221766 76.2629916,3.84221766 L24.6731858,3.84221766 C21.8563824,3.84221766 21.2718699,4.09804443 19.6901264,5.76290674 L9.92933516,19.2103813 L92.7505776,19.2103813 L81.2465668,5.76290674 Z M6.7292195,42.2630687 C3.01320579,42.2630687 -0.000154769417,39.682267 -0.000154769417,36.499676 L-0.000154769417,24.9737741 C-0.000154769417,24.2964297 0.161321323,23.6566418 0.412047779,23.0526432 L17.4480335,1.92108674 C19.0287451,0.255782587 19.6137735,-4.4184244e-05 22.4305769,-4.4184244e-05 L78.5061163,-4.4184244e-05 C81.1129492,-4.4184244e-05 82.7493779,1.21634805 83.4896916,1.92108674 L102.76777,23.0526432 C103.019528,23.6566418 103.179457,24.2964297 103.179457,24.9737741 L103.179457,36.5001178 C103.179457,39.6827089 100.167644,42.2630687 96.4505985,42.2630687 L6.7292195,42.2630687 Z" id="Fill-1" fill="#00B1FF"></path>
                        <rect id="Rectangle-2" fill="#11242E" x="3.26815642" y="22.8398553" width="95.8659218" height="16.6888718" rx="7"></rect>
                        <rect id="Mask" fill="#00B1FF" x="77.605178" y="31.8126556" width="14.1100324" height="3.02977672" rx="1.51488836"></rect>
                        <rect id="Mask" fill="#00B1FF" x="13.2281553" y="24.9956579" width="3.52750809" height="11.3616627" rx="1.76375405"></rect>
                        <rect id="Mask" fill="#00B1FF" x="21.1650485" y="24.9956579" width="3.52750809" height="11.3616627" rx="1.76375405"></rect>
                        <mask id="mask-4" fill="white">
                            <use xlink:href="#path-3"></use>
                        </mask>
                        <use id="Mask" fill="#00B1FF" xlink:href="#path-3"></use>
                    </g>
                    <path d="M70.9952219,46.3104212 C70.9952279,45.7601696 71.4335382,45.3141026 71.9884631,45.3141026 L127.635258,45.3141026 C128.740719,45.3141026 129.537227,46.2001761 129.412333,47.310778 L128.737864,53.3083934 L70.9951456,53.3083934 L70.9952219,46.3104212 Z" id="Rectangle-3" fill="#153A4E"></path>
                    <polygon id="Rectangle-3" fill="#19475F" points="70.9951456 53.3083934 128.737864 53.3083934 135.364078 60.4615318 65.319577 60.4615318"></polygon>
                    <g id="Group-7-Copy" transform="translate(14.888138, 62.752294) rotate(-84.000000) translate(-14.888138, -62.752294) translate(5.888138, 48.752294)" stroke="#00B1FF">
                        <path d="M2.66231796,5.84726187 L2.66231796,20.7312012" id="Line" stroke-linecap="square"></path>
                        <path d="M15.2200947,20.1996319 L13.8440534,27.6513291" id="Line" stroke-linecap="square"></path>
                        <path d="M13.8411652,19.1364934 L4.25970874,21.9563957" id="Line" stroke-linecap="square" opacity="0.846198694"></path>
                        <ellipse id="Oval-86" cx="2.66231796" cy="2.6578463" rx="2.66231796" ry="2.6578463"></ellipse>
                        <path d="M2.66231796,24.452186 C3.54453253,24.452186 4.25970874,23.738211 4.25970874,22.8574782 C4.25970874,21.9767454 3.54453253,21.2627704 2.66231796,21.2627704 C1.7801034,21.2627704 1.06492718,21.9767454 1.06492718,22.8574782 C1.06492718,23.738211 1.7801034,24.452186 2.66231796,24.452186 Z" id="Oval-86"></path>
                        <path d="M15.4414442,20.1996319 C16.3236587,20.1996319 17.038835,19.4856569 17.038835,18.6049241 C17.038835,17.7241913 16.3236587,17.0102163 15.4414442,17.0102163 C14.5592296,17.0102163 13.8440534,17.7241913 13.8440534,18.6049241 C13.8440534,19.4856569 14.5592296,20.1996319 15.4414442,20.1996319 Z" id="Oval-86"></path>
                    </g>
                    <g id="Group-7-Copy-3" transform="translate(185.673966, 83.722276) rotate(-208.000000) translate(-185.673966, -83.722276) translate(177.673966, 79.722276)" stroke="#00B1FF">
                        <path d="M12.776238,2.12627704 L3.19478155,4.94617939" id="Line" stroke-linecap="square" opacity="0.846198694"></path>
                        <path d="M1.59739078,7.44196965 C2.47960534,7.44196965 3.19478155,6.72799466 3.19478155,5.84726187 C3.19478155,4.96652908 2.47960534,4.25255409 1.59739078,4.25255409 C0.715176211,4.25255409 -9.9475983e-13,4.96652908 -9.9475983e-13,5.84726187 C-9.9475983e-13,6.72799466 0.715176211,7.44196965 1.59739078,7.44196965 Z" id="Oval-86"></path>
                        <path d="M14.376517,3.18941556 C15.2587316,3.18941556 15.9739078,2.47544057 15.9739078,1.59470778 C15.9739078,0.713974994 15.2587316,-8.52651283e-14 14.376517,-8.52651283e-14 C13.4943024,-8.52651283e-14 12.7791262,0.713974994 12.7791262,1.59470778 C12.7791262,2.47544057 13.4943024,3.18941556 14.376517,3.18941556 Z" id="Oval-86"></path>
                    </g>
                    <g id="Group-7-Copy-3" transform="translate(104.723225, 8.824908) rotate(-100.000000) translate(-104.723225, -8.824908) translate(96.723225, 4.824908)" stroke="#00B1FF">
                        <path d="M12.776238,2.12627704 L3.19478155,4.94617939" id="Line" stroke-linecap="square" opacity="0.846198694"></path>
                        <path d="M1.59739078,7.44196965 C2.47960534,7.44196965 3.19478155,6.72799466 3.19478155,5.84726187 C3.19478155,4.96652908 2.47960534,4.25255409 1.59739078,4.25255409 C0.715176211,4.25255409 1.11688436e-13,4.96652908 1.11688436e-13,5.84726187 C1.11688436e-13,6.72799466 0.715176211,7.44196965 1.59739078,7.44196965 Z" id="Oval-86"></path>
                        <path d="M14.376517,3.18941556 C15.2587316,3.18941556 15.9739078,2.47544057 15.9739078,1.59470778 C15.9739078,0.713974994 15.2587316,-6.53699317e-13 14.376517,-6.53699317e-13 C13.4943024,-6.53699317e-13 12.7791262,0.713974994 12.7791262,1.59470778 C12.7791262,2.47544057 13.4943024,3.18941556 14.376517,3.18941556 Z" id="Oval-86"></path>
                    </g>
                </g>
                <text font-family="MicrosoftYaHei, Microsoft YaHei" font-size="16" font-weight="normal" letter-spacing="0.928318977" fill="#00B1FF">
                    <tspan x="67.452514" y="161.025641">暂无数据</tspan>
                </text>
            </g>
        </g>
    </g>
</svg>