<?xml version="1.0" encoding="UTF-8" standalone="no"?>
<svg width="32px" height="32px" viewBox="0 0 32 32" version="1.1" xmlns="http://www.w3.org/2000/svg" xmlns:xlink="http://www.w3.org/1999/xlink">
    <!-- Generator: Sketch 39.1 (31720) - http://www.bohemiancoding.com/sketch -->
    <title>Group 8</title>
    <desc>Created with Sketch.</desc>
    <defs></defs>
    <g id="Page-1" stroke="none" stroke-width="1" fill="none" fill-rule="evenodd">
        <g id="内容_文件刷新" transform="translate(-271.000000, -196.000000)">
            <g id="Group-4" transform="translate(271.000000, 196.000000)">
                <g id="Group-8">
                    <circle id="Oval-2" fill="#FFFFFF" opacity="0.149999991" cx="16" cy="16" r="16"></circle>
                    <path d="M21.3866781,11.6837842 C20.1733451,10.3814159 18.4400086,9.6 16.533346,9.6 C12.7200209,9.6 9.6,12.725689 9.6,16.5459981 C9.6,20.3663072 12.7199956,23.4919708 16.533346,23.4919708 C19.7400046,23.4919708 22.4266597,21.2345443 23.2066522,18.2824976 L21.3866527,18.2824976 C20.6933232,20.2794607 18.7866353,21.7554967 16.5333206,21.7554967 C13.6733141,21.7554967 11.3333111,19.4112236 11.3333111,16.5459981 C11.3333111,13.680798 13.6733395,11.3364995 16.533346,11.3364995 C18.0066681,11.3364995 19.2200011,11.9442731 20.1733451,12.8993567 L17.4000016,15.6777356 L23.4666667,15.6777356 L23.4666667,9.6 L21.3866781,11.6837842" id="iconfont-shuaxin-(1)" fill="#C6C8C9"></path>
                </g>
            </g>
        </g>
    </g>
</svg>