<?xml version="1.0" encoding="UTF-8" standalone="no"?>
<svg width="12px" height="11px" viewBox="0 0 12 11" version="1.1" xmlns="http://www.w3.org/2000/svg" xmlns:xlink="http://www.w3.org/1999/xlink">
    <!-- Generator: Sketch 39.1 (31720) - http://www.bohemiancoding.com/sketch -->
    <title>Group 9</title>
    <desc>Created with Sketch.</desc>
    <defs></defs>
    <g id="Page-1" stroke="none" stroke-width="1" fill="none" fill-rule="evenodd" opacity="0.800000012">
        <g id="状态吗分析" transform="translate(-1213.000000, -937.000000)" fill="#00B1FF">
            <g id="状态码明细" transform="translate(233.000000, 917.000000)">
                <g id="Group-19">
                    <g id="Group-30">
                        <g id="更多-icon" transform="translate(986.000000, 25.640351) scale(-1, 1) translate(-986.000000, -25.640351) translate(980.000000, 20.140351)">
                            <g id="Group-9">
                                <rect id="Rectangle-21" transform="translate(6.000000, 0.939651) scale(-1, 1) translate(-6.000000, -0.939651) " x="0" y="0" width="12" height="1.87930152" rx="0.939650761"></rect>
                                <rect id="Rectangle-21-Copy-2" transform="translate(6.000000, 9.728168) scale(-1, 1) translate(-6.000000, -9.728168) " x="0" y="8.78851675" width="12" height="1.87930152" rx="0.939650761"></rect>
                                <path d="M0,5.33390913 C0,4.81495435 0.421875,4.39425837 0.941408547,4.39425837 L8.87677327,4.39425837 C9.39669885,4.39425837 9.81818182,4.81133629 9.81818182,5.33390913 L9.81818182,5.33390913 C9.81818182,5.85286392 9.39630682,6.2735599 8.87677327,6.2735599 L0.941408547,6.2735599 C0.421482963,6.2735599 0,5.85648198 0,5.33390913 L0,5.33390913 Z" id="Rectangle-21-Copy" transform="translate(4.909091, 5.333909) scale(-1, 1) translate(-4.909091, -5.333909) "></path>
                            </g>
                        </g>
                    </g>
                </g>
            </g>
        </g>
    </g>
</svg>