<?xml version="1.0" encoding="UTF-8" standalone="no"?>
<svg width="222px" height="158px" viewBox="0 0 222 158" version="1.1" xmlns="http://www.w3.org/2000/svg" xmlns:xlink="http://www.w3.org/1999/xlink">
    <!-- Generator: Sketch 39.1 (31720) - http://www.bohemiancoding.com/sketch -->
    <title>点缀</title>
    <desc>Created with Sketch.</desc>
    <defs></defs>
    <g id="Page-1" stroke="none" stroke-width="1" fill="none" fill-rule="evenodd" opacity="0.600000024">
        <g id="未知错误" transform="translate(-614.000000, -376.000000)">
            <g id="错误" transform="translate(611.000000, 374.000000)">
                <g id="Group-6" transform="translate(38.731801, 24.000000)">
                    <path d="M53.3045635,12.6166903 C58.8434983,10.9450444 64.7202572,10.0461538 70.8080514,10.0461538 C104.059223,10.0461538 131.014624,36.8625754 131.014624,69.9423077 C131.014624,103.02204 104.059223,129.838462 70.8080514,129.838462 C37.5568794,129.838462 10.6014786,103.02204 10.6014786,69.9423077 C10.6014786,63.9179097 11.4955025,58.1012456 13.1587609,52.6164613 C13.2854979,52.7098529 13.3695969,52.7307692 13.3695969,52.7307692 C13.3695969,52.7307692 17.5217743,55.4846154 21.6739518,51.3538462 C25.8261292,47.2230769 28.1144847,43.3309528 31.3623658,41.7153853 C34.6102468,40.0998177 35.5145432,45.8461545 41.0507798,41.7153853 C46.5870164,37.584616 43.8188981,30.7 43.8188981,27.9461538 C43.8188981,25.1923077 50.7391938,29.3230769 53.5073121,22.4384615 C56.2754304,15.5538462 53.5073121,12.8 53.5073121,12.8 C53.5073121,12.8 53.4378032,12.7349172 53.3045635,12.6166903 Z" id="Oval-81" stroke="#00B1FF" stroke-width="2" fill="#11242E"></path>
                    <path d="M0.913064594,45.8461538 C0.913064594,45.8461538 13.3695969,10.0461538 42.4348389,0.407692308 L43.8188981,10.0461538 C43.8188981,10.0461538 39.6667206,18.3076923 35.5145432,15.5538462 C31.3623658,12.8 31.3623658,23.8153846 31.3623658,27.9461538 C31.3623658,32.0769231 17.5217743,27.2576923 17.5217743,33.4538462 C17.5217743,39.65 0.913064594,45.8461538 0.913064594,45.8461538 Z" id="Path-452" stroke="#00B1FF" stroke-width="2" fill="#004968"></path>
                    <path d="M53.5073121,45.8461538 C53.5073121,45.8461538 49.3551346,52.7307692 49.3551346,55.4846154 C49.3551346,58.2384615 60.4276078,59.6153846 60.4276078,63.7461538 C60.4276078,67.8769231 61.8116669,69.2538462 65.9638444,73.3846154 C70.1160218,77.5153846 81.188495,78.8923077 81.188495,73.3846154 C81.188495,67.8769231 83.9566132,54.1076923 77.0363175,51.3538462 C70.1160218,48.6 61.8116669,45.8461538 57.6594895,45.8461538 L53.5073121,45.8461538 Z" id="Path-453" stroke="#00B1FE" stroke-width="2" fill="#004968"></path>
                    <path d="M44.4656701,63.7461538 C44.4656701,63.7461538 32.0091378,72.0076923 47.2337883,81.6461538 C47.2337883,81.6461538 55.5381432,84.4 55.5381432,78.8923077 C55.5381432,73.3846154 44.4656701,63.7461538 44.4656701,63.7461538 Z" id="Path-454" stroke="#00B1FF" stroke-width="2" fill="#004968"></path>
                    <path d="M80.3018321,19.6846154 C80.3018321,19.6846154 70.6134181,21.0615385 73.3815363,23.8153846 C76.1496546,26.5692308 77.5337138,26.5692308 80.3018321,26.5692308 C83.0699504,26.5692308 80.3018321,19.6846154 80.3018321,19.6846154 Z" id="Path-455" stroke="#00B1FF" opacity="0.5"></path>
                    <path d="M129.630565,81.6461538 C129.630565,81.6461538 115.520167,83.0230769 116.904226,89.9076923 C118.288285,96.7923077 111.749687,96.7923077 111.36799,96.7923077 C108.599871,100.923077 113.866301,109.184615 116.904226,109.184615" id="Path-456" stroke="#00B1FF" stroke-width="2" fill="#004868"></path>
                    <path d="M52.1232529,125.707692 C52.1232529,125.707692 58.3515191,120.2 61.8116669,120.2 C65.2718148,120.2 61.8116669,124.330769 67.3479035,124.330769 C72.8841401,124.330769 74.2681992,122.953846 77.0363175,128.461538" id="Path-457" stroke="#00B1FF" stroke-width="2" fill="#004968"></path>
                    <polyline id="Path-458" stroke="#0392D1" opacity="0.2" points="29.9783066 109.184615 34.1304841 99.5461538 46.5870164 102.3 45.2029572 118.823077"></polyline>
                    <polyline id="Path-459" stroke="#00B1FF" opacity="0.2" points="113.021855 43.0923077 110.253737 38.9615385 119.942151 38.9615385 119.942151 44.4692308 113.021855 51.3538462"></polyline>
                    <path d="M18.6414781,98.5392299 C10.9142526,110.647186 8.18074273,120.428204 12.2513762,125.086788 C20.5259295,134.556495 53.7821099,119.274087 86.531134,90.9525741 L86.531134,90.9525741 C119.280158,62.6310614 139.120637,31.9952248 130.846083,22.5255179 C127.242496,18.4014379 118.900835,18.9719017 107.926432,23.2694333" id="Oval-82" stroke="#00B1FF" stroke-width="3"></path>
                    <path d="M37.4203211,26.2031506 C41.814183,24.347683 41.9469218,22.2281065 41.2008884,20.4796234 C40.454855,18.7311403 38.5645712,21.5929039 38.5645712,21.5929039 C38.5645712,21.5929039 33.0264591,28.0586181 37.4203211,26.2031506 Z" id="Path-461" stroke="#00B1FF" fill="#004968"></path>
                </g>
                <g id="点缀" transform="translate(1.000000, 0.000000)">
                    <g id="Group-7" transform="translate(198.896552, 76.154306)" stroke="#00B1FF">
                        <path d="M1.35775862,2.94407895 L1.35775862,10.4380981" id="Line" stroke-linecap="square"></path>
                        <path d="M7.76211371,10.1704545 L7.06034483,13.9223619" id="Line" stroke-linecap="square"></path>
                        <path d="M7.05887187,9.63516746 L2.17241379,11.0549799" id="Line" stroke-linecap="square" opacity="0.846198694"></path>
                        <ellipse id="Oval-86" cx="1.35775862" cy="1.3382177" rx="1.35775862" ry="1.3382177"></ellipse>
                        <path d="M1.35775862,12.3116029 C1.80768025,12.3116029 2.17241379,11.9521186 2.17241379,11.5086722 C2.17241379,11.0652259 1.80768025,10.7057416 1.35775862,10.7057416 C0.907836993,10.7057416 0.543103448,11.0652259 0.543103448,11.5086722 C0.543103448,11.9521186 0.907836993,12.3116029 1.35775862,12.3116029 Z" id="Oval-86"></path>
                        <path d="M7.875,10.1704545 C8.32492163,10.1704545 8.68965517,9.81097026 8.68965517,9.36752392 C8.68965517,8.92407759 8.32492163,8.5645933 7.875,8.5645933 C7.42507837,8.5645933 7.06034483,8.92407759 7.06034483,9.36752392 C7.06034483,9.81097026 7.42507837,10.1704545 7.875,10.1704545 Z" id="Oval-86"></path>
                    </g>
                    <g id="Group-7-Copy" transform="translate(143.171181, 9.750427) rotate(-84.000000) translate(-143.171181, -9.750427) translate(135.171181, -3.249573)" stroke="#00B1FE">
                        <path d="M2.4137931,5.29934211 L2.4137931,18.7885766" id="Line" stroke-linecap="square"></path>
                        <path d="M13.7993133,18.3068182 L12.5517241,25.0602514" id="Line" stroke-linecap="square"></path>
                        <path d="M12.5491055,17.3433014 L3.86206897,19.8989638" id="Line" stroke-linecap="square" opacity="0.846198694"></path>
                        <ellipse id="Oval-86" cx="2.4137931" cy="2.40879187" rx="2.4137931" ry="2.40879187"></ellipse>
                        <path d="M2.4137931,22.1608852 C3.21365378,22.1608852 3.86206897,21.5138135 3.86206897,20.71561 C3.86206897,19.9174066 3.21365378,19.2703349 2.4137931,19.2703349 C1.61393243,19.2703349 0.965517241,19.9174066 0.965517241,20.71561 C0.965517241,21.5138135 1.61393243,22.1608852 2.4137931,22.1608852 Z" id="Oval-86"></path>
                        <path d="M14,18.3068182 C14.7998607,18.3068182 15.4482759,17.6597465 15.4482759,16.8615431 C15.4482759,16.0633397 14.7998607,15.4162679 14,15.4162679 C13.2001393,15.4162679 12.5517241,16.0633397 12.5517241,16.8615431 C12.5517241,17.6597465 13.2001393,18.3068182 14,18.3068182 Z" id="Oval-86"></path>
                    </g>
                    <g id="Group-7-Copy-2" transform="translate(215.247822, 155.264634) rotate(-142.000000) translate(-215.247822, -155.264634) translate(207.747822, 151.764634)" stroke="#00B1FF">
                        <path d="M11.5835883,1.92703349 L2.89655172,4.48269588" id="Line" stroke-linecap="square" opacity="0.846198694"></path>
                        <path d="M1.44827586,6.74461722 C2.24813653,6.74461722 2.89655172,6.09754551 2.89655172,5.29934211 C2.89655172,4.5011387 2.24813653,3.85406699 1.44827586,3.85406699 C0.64841519,3.85406699 6.25277607e-13,4.5011387 6.25277607e-13,5.29934211 C6.25277607e-13,6.09754551 0.64841519,6.74461722 1.44827586,6.74461722 Z" id="Oval-86"></path>
                        <path d="M13.0344828,2.89055024 C13.8343434,2.89055024 14.4827586,2.24347853 14.4827586,1.44527512 C14.4827586,0.647071712 13.8343434,-2.98427949e-13 13.0344828,-2.98427949e-13 C12.2346221,-2.98427949e-13 11.5862069,0.647071712 11.5862069,1.44527512 C11.5862069,2.24347853 12.2346221,2.89055024 13.0344828,2.89055024 Z" id="Oval-86"></path>
                    </g>
                    <g id="Group-7-Copy-3" transform="translate(8.464017, 118.919513) rotate(-208.000000) translate(-8.464017, -118.919513) translate(0.964017, 115.419513)" stroke="#00B1FF">
                        <path d="M11.5835883,1.92703349 L2.89655172,4.48269588" id="Line" stroke-linecap="square" opacity="0.846198694"></path>
                        <path d="M1.44827586,6.74461722 C2.24813653,6.74461722 2.89655172,6.09754551 2.89655172,5.29934211 C2.89655172,4.5011387 2.24813653,3.85406699 1.44827586,3.85406699 C0.64841519,3.85406699 1.70530257e-13,4.5011387 1.70530257e-13,5.29934211 C1.70530257e-13,6.09754551 0.64841519,6.74461722 1.44827586,6.74461722 Z" id="Oval-86"></path>
                        <path d="M13.0344828,2.89055024 C13.8343434,2.89055024 14.4827586,2.24347853 14.4827586,1.44527512 C14.4827586,0.647071712 13.8343434,-2.7000624e-13 13.0344828,-2.7000624e-13 C12.2346221,-2.7000624e-13 11.5862069,0.647071712 11.5862069,1.44527512 C11.5862069,2.24347853 12.2346221,2.89055024 13.0344828,2.89055024 Z" id="Oval-86"></path>
                    </g>
                </g>
            </g>
        </g>
    </g>
</svg>