<?xml version="1.0" encoding="UTF-8" standalone="no"?>
<svg width="15px" height="15px" viewBox="0 0 15 15" version="1.1" xmlns="http://www.w3.org/2000/svg" xmlns:xlink="http://www.w3.org/1999/xlink">
    <!-- Generator: Sketch 39.1 (31720) - http://www.bohemiancoding.com/sketch -->
    <title>操作手册</title>
    <desc>Created with Sketch.</desc>
    <defs></defs>
    <g id="Page-1" stroke="none" stroke-width="1" fill="none" fill-rule="evenodd" opacity="0.359999985">
        <g id="内容_文件刷新_展开搜索" transform="translate(-1092.000000, -21.000000)" fill="#8B9199">
            <g id="操作手册" transform="translate(1093.000000, 21.000000)">
                <path d="M12.9277426,14.9928457 L0.709386298,14.9928457 C0.319663702,14.9928457 0.00437351779,14.6786136 0.00437351779,14.2903769 L0.00437351779,2.1144752 C0.00437351779,1.72690725 0.319663702,1.41201985 0.709386298,1.41201985 L1.88411355,1.41201985 L1.88411355,2.1144752 C1.88411355,2.89014548 2.51559911,3.51936573 3.29346434,3.51936573 C4.07258696,3.51936573 4.70317721,2.89014885 4.70317721,2.1144752 L4.70317719,1.4120232 L5.40845329,1.4120232 L5.40845329,2.11447855 C5.40845329,2.89014883 6.03959323,3.51936908 6.81841303,3.51936908 C7.59693658,3.51936908 8.22778027,2.89015219 8.22778027,2.11447855 L8.22778025,1.4120232 L8.93332627,1.4120232 L8.93332627,2.11447855 C8.93332627,2.89014883 9.56390664,3.51936908 10.3424137,3.51936908 C11.1205917,3.51936908 11.752143,2.89015219 11.752143,2.11447855 L11.7521431,1.4120232 L12.9274792,1.4120232 C13.3162802,1.4120232 13.6319226,1.7269106 13.6319226,2.11447855 L13.6319226,14.2903802 C13.6321694,14.6786204 13.3168891,14.992849 12.9278413,14.992849 L12.9277426,14.992849 L12.9277426,14.9928457 Z M11.0471072,5.39235257 L2.58917569,5.39235257 C2.19974934,5.39235257 1.88389959,5.70725679 1.88389959,6.0947743 C1.88389959,6.48296403 2.19944653,6.79724645 2.58917569,6.79724645 L11.0471072,6.79724645 C11.4371096,6.79724645 11.7526532,6.48296401 11.7526532,6.0947743 C11.7526532,5.70725342 11.4371063,5.39235257 11.0471072,5.39235257 L11.0471072,5.39235257 Z M11.0471072,8.43653973 L2.58917569,8.43653973 C2.19974934,8.43653973 1.88389959,8.75077175 1.88389959,9.1389245 C1.88389959,9.52654286 2.19944653,9.84139665 2.58917569,9.84139665 L11.0471072,9.84139665 C11.4371096,9.84139665 11.7526532,9.52654285 11.7526532,9.1389245 C11.7526532,8.75077175 11.4371063,8.43653973 11.0471072,8.43653973 L11.0471072,8.43653973 Z M11.1651728,11.4806798 L2.47170922,11.4806798 C2.14683068,11.4806798 1.88415632,11.7425146 1.88415632,12.0659557 C1.88415632,12.3893967 2.14717628,12.6512315 2.47170922,12.6512315 L11.1651761,12.6512315 C11.4897419,12.6512315 11.7526532,12.3893967 11.7526532,12.0659557 C11.7526532,11.7425146 11.4893765,11.4806798 11.1651728,11.4806798 L11.1651728,11.4806798 Z M10.3427429,2.81689693 C9.95394193,2.81689693 9.63778936,2.50200953 9.63778936,2.11447855 L9.63778936,0.709534254 C9.63778936,0.322016721 9.95359962,0.00711586883 10.3427429,0.00711586883 C10.7321692,0.00711586883 11.0471072,0.322020084 11.0471072,0.709534254 L11.0471072,2.1144752 C11.0471072,2.50200953 10.7321692,2.81689693 10.3427429,2.81689693 L10.3427429,2.81689693 Z M6.81872572,2.81689693 C6.42959562,2.81689693 6.11344303,2.50200953 6.11344303,2.11447855 L6.11344303,0.709534254 C6.11344303,0.322016721 6.42935204,0.00711586883 6.81872572,0.00711586883 C7.20751021,0.00711586883 7.52341922,0.322020084 7.52341922,0.709534254 L7.52341922,2.1144752 C7.52308676,2.50200953 7.20718106,2.81689693 6.81872572,2.81689693 L6.81872572,2.81689693 Z M3.2935137,2.81689693 C2.90472263,2.81689693 2.58912632,2.50200953 2.58912632,2.11447855 L2.58912632,0.709534254 C2.58912632,0.322016721 2.90472261,0.00711586883 3.2935137,0.00711586883 C3.68324289,0.00711586883 3.99909264,0.322020084 3.99909264,0.709534254 L3.99909264,2.1144752 C3.99909264,2.50200953 3.68324289,2.81689693 3.2935137,2.81689693 L3.2935137,2.81689693 Z" id="Shape"></path>
            </g>
        </g>
    </g>
</svg>