<?xml version="1.0" encoding="UTF-8" standalone="no"?>
<svg width="16px" height="16px" viewBox="0 0 16 16" version="1.1" xmlns="http://www.w3.org/2000/svg" xmlns:xlink="http://www.w3.org/1999/xlink">
    <!-- Generator: Sketch 39.1 (31720) - http://www.bohemiancoding.com/sketch -->
    <title>图层_1</title>
    <desc>Created with Sketch.</desc>
    <defs></defs>
    <g id="Page-1" stroke="none" stroke-width="1" fill="none" fill-rule="evenodd" opacity="0.360482743">
        <g id="带宽分析" transform="translate(-1210.000000, -21.000000)" fill="#ffffff">
            <g id="Group-5" transform="translate(1210.000000, 21.000000)">
                <g id="账号－默认">
                    <g id="图层_1">
                        <g id="Group" transform="translate(0.351359, 0.000000)">
                            <path d="M9.18820489,15.8979284 L5.93081261,15.8979284 C2.86861987,15.8979284 0.453025593,15.8979284 0.453025593,14.3690517 L0.453025593,14.0584986 C0.453025593,11.1440775 2.91741975,8.77909643 5.93081261,8.77909643 L9.18820489,8.77909643 C12.2137977,8.77909643 14.6659919,11.1440775 14.6659919,14.0584986 L14.6659919,14.3690517 C14.6659919,15.8979284 12.1283979,15.8979284 9.18820489,15.8979284 L9.18820489,15.8979284 Z M7.39480914,8.37298857 C5.00361481,8.37298857 3.05161943,6.4977258 3.05161943,4.18052211 C3.05161943,1.87526278 5.00361481,0 7.39480914,0 C9.78600347,0 11.7379988,1.87526278 11.7379988,4.19246646 C11.7379988,6.4977258 9.78600347,8.37298857 7.39480914,8.37298857 L7.39480914,8.37298857 Z" id="Shape"></path>
                        </g>
                    </g>
                </g>
            </g>
        </g>
    </g>
</svg>