<?xml version="1.0" encoding="UTF-8" standalone="no"?>
<svg width="62px" height="62px" viewBox="0 0 62 62" version="1.1" xmlns="http://www.w3.org/2000/svg" xmlns:xlink="http://www.w3.org/1999/xlink">
    <!-- Generator: Sketch 39.1 (31720) - http://www.bohemiancoding.com/sketch -->
    <title>Group 8</title>
    <desc>Created with Sketch.</desc>
    <defs>
        <path d="M31,46 C39.2842712,46 46,39.2842712 46,31 C46,22.7157288 39.2842712,16 31,16 C22.7157288,16 16,22.7157288 16,31 C16,39.2842712 22.7157288,46 31,46 Z" id="path-1"></path>
        <filter x="-50%" y="-50%" width="200%" height="200%" filterUnits="objectBoundingBox" id="filter-2">
            <feOffset dx="0" dy="0" in="SourceAlpha" result="shadowOffsetOuter1"></feOffset>
            <feGaussianBlur stdDeviation="8" in="shadowOffsetOuter1" result="shadowBlurOuter1"></feGaussianBlur>
            <feColorMatrix values="0 0 0 0 0.533333333   0 0 0 0 0.545098039   0 0 0 0 0.564705882  0 0 0 0.17 0" type="matrix" in="shadowBlurOuter1"></feColorMatrix>
        </filter>
    </defs>
    <g id="Page-1" stroke="none" stroke-width="1" fill="none" fill-rule="evenodd">
        <g id="域名管理" transform="translate(-255.000000, -180.000000)">
            <g id="Group-8" transform="translate(255.000000, 180.000000)">
                <g id="Oval-2">
                    <use fill="black" fill-opacity="1" filter="url(#filter-2)" xlink:href="#path-1"></use>
                    <use fill="#FFFFFF" fill-rule="evenodd" xlink:href="#path-1"></use>
                </g>
                <g id="Group" transform="translate(25.000000, 25.000000)" fill="#C6C8C9">
                    <path d="M0,9.23000406 L0,11.7000081 L2.47000405,11.7000081 L9.61999188,4.48500609 L7.14998782,2.01500202 L0,9.23000406 L0,9.23000406 Z M11.5049817,2.59999999 C11.7649736,2.34000811 11.7649736,1.95000405 11.5049817,1.68999594 L10.0099797,0.194993909 C9.74998782,-0.0649979698 9.35998375,-0.0649979698 9.09997564,0.194993909 L7.92997971,1.36498984 L10.3999838,3.8349939 L11.5049817,2.59999999 L11.5049817,2.59999999 Z M5.84999593,10.4 L4.55000406,11.6999919 L13,11.6999919 L13,10.4 L5.84999593,10.4 L5.84999593,10.4 Z" id="Shape"></path>
                </g>
            </g>
        </g>
    </g>
</svg>